<svg xmlns="http://www.w3.org/2000/svg" viewBox="0 0 120 120" width="512" height="512">
  <defs>
    <linearGradient id="plumGrad" x1="0" y1="0" x2="1" y2="1">
      <stop offset="0" stop-color="#A24FB0"></stop>
      <stop offset="0.55" stop-color="#7E2F8E"></stop>
      <stop offset="1" stop-color="#4E1B5C"></stop>
    </linearGradient>
    <linearGradient id="leafGrad" x1="0" y1="0" x2="1" y2="1">
      <stop offset="0" stop-color="#82BC74"></stop>
      <stop offset="1" stop-color="#4E8A57"></stop>
    </linearGradient>
  </defs>
  <g transform="rotate(-12 60 62)">
    <path d="M60 35 C58 27 48 25 41 30 C31 37 28 53 31 68 C34 85 48 95 60 95 C72 95 86 85 89 68 C92 53 89 37 79 30 C72 25 62 27 60 35 Z" fill="url(#plumGrad)"></path>
    <ellipse cx="46" cy="52" rx="9" ry="5" fill="#ffffff" opacity="0.18" transform="rotate(-34 46 52)"></ellipse>
    <path d="M58 41 C50 58 51 77 60 92" stroke="#3E1349" stroke-opacity="0.3" stroke-width="3" fill="none" stroke-linecap="round"></path>
    <path d="M60 34 C60 27 61 24 64 21" stroke="#7A4A2E" stroke-width="3.5" fill="none" stroke-linecap="round"></path>
    <path d="M64 22 C74 11 89 15 89 15 C89 15 86 30 74 31 C66 32 61 26 64 22 Z" fill="url(#leafGrad)"></path>
    <path d="M68 24 C75 21 84 18 84 18" stroke="#3D6B43" stroke-width="1.6" fill="none" stroke-linecap="round" opacity="0.5"></path>
  </g>
</svg>